<svg height="8.8mm" viewBox="0 0 100 8.8000002" width="100mm" xmlns="http://www.w3.org/2000/svg"><g stroke-width=".110704" transform="matrix(.91057698197 0 0 .90973656346 -27.28906487415 -156.65371128068)"><path d="m30.222977 175.94329q0-.254.08467-.55033.08467-.30692.306917-.56092.22225-.254.624417-.42333.402166-.16933 1.037166-.16933.645584 0 1.026584.16933.381.16933.5715.42333.201083.254.254.55034.05292.28575.05292.53975l-.05292 2.94216q0 .0423 0 .14817.01058.10583.04233.21167.04233.10583.127.1905.08467.0847.243417.0847.105833 0 .201083-.0317v.35984q-.15875.0529-.34925.0529-.232833 0-.381-.0847-.148167-.0952-.232833-.23284-.07408-.14816-.105834-.3175-.02117-.17991-.01058-.35983-.09525.1905-.254.381-.148167.1905-.381.34925-.232833.14817-.550333.24342-.3175.0952-.73025.0952-.306917 0-.624417-.0741-.3175-.0635-.5715-.23283-.254-.17992-.423333-.47625-.15875-.29633-.15875-.762 0-.55033.243416-.86783.254-.3175.60325-.47625.359834-.15875.740834-.20109.381-.0529.645583-.0741l.60325-.0635q.28575-.0318.465667-.0529.179916-.0318.275166-.10583.09525-.0847.127-.24342.04233-.15875.04233-.46566 0-.45509-.1905-.70909-.179917-.254-.423334-.37041-.243416-.127-.486833-.14817-.232833-.0212-.338667-.0212-.497416 0-.804333.127-.306917.127-.486833.32809-.169334.1905-.232834.42333-.0635.23283-.0635.45508zm3.450166.91017q-.116416.0952-.243416.13758-.127.0423-.306917.0741-.169333.0212-.41275.0423-.232833.0212-.560917.0635-.423333.0529-.740833.127-.3175.0741-.529167.21167-.211666.13758-.3175.35983-.105833.21167-.105833.53975 0 .53975.34925.85725.34925.3175.9525.3175.328083 0 .656167-.0952.338666-.10583.60325-.34925.275166-.24342.455083-.635.179917-.39158.1905-.98425z"/><path d="m36.521217 180.54704q.105834.381.465667.66675.370417.28575 1.100667.28575.148166 0 .4445-.0529.296333-.0423.582083-.24342.296333-.1905.508-.59267.22225-.40216.22225-1.12183v-.635q-.211667.51858-.687917.79375-.47625.26458-1.0795.26458-.5715 0-.973666-.17991-.391584-.17992-.656167-.45509-.254-.27516-.402167-.61383-.148166-.33867-.22225-.64558-.0635-.3175-.08467-.5715-.01058-.254-.01058-.37042 0-1.397.582084-2.11667.582083-.71966 1.640416-.71966.41275 0 .719667.0952.306917.0952.529167.24341.22225.14817.370416.34925.15875.1905.254.39159h.02117v-.86784h.465666v4.97417q0 .27517-.04233.68792-.04233.41275-.254.80433-.211667.39158-.677333.66675-.455083.28575-1.291167.28575-.22225 0-.529166-.0317-.306917-.0318-.613834-.16933-.296333-.127-.550333-.39159-.254-.26458-.359833-.73025zm1.608667-1.00541q.306917 0 .613833-.0952.3175-.10584.560917-.37042.254-.27517.402166-.74083.15875-.46567.15875-1.19592 0-1.24883-.476249-1.88383-.465667-.64559-1.397-.64559-.423334 0-.719667.14817-.296333.13758-.497417.37042-.201083.22225-.3175.508-.105833.27516-.15875.55033-.05292.27517-.07408.508-.01058.23283-.01058.37042 0 .73025.169333 1.21708.179917.47625.455083.762.28575.27517.624417.39158.338667.10584.66675.10584z"/><path d="m41.701263 177.13921q0-.60325.137584-1.12183.137583-.52917.433916-.92075.306917-.40217.772583-.62442.465667-.23283 1.132417-.23283.66675 0 1.132417.23283.465666.22225.762.62442.306916.39158.4445.92075.137583.51858.137583 1.12183 0 .60325-.137583 1.13242-.137584.51858-.4445.92075-.296334.39158-.762.62441-.465667.22225-1.132417.22225-.66675 0-1.132417-.22225-.465666-.23283-.772583-.62441-.296333-.40217-.433916-.92075-.137584-.52917-.137584-1.13242zm.486833 0q0 .5715.116417 1.03717.127.46566.370417.80433.254.32808.624416.508.370417.17992.878417.17992.508 0 .878417-.17992.370416-.17992.613833-.508.254-.33867.370417-.80433.127-.46567.127-1.03717 0-.5715-.127-1.03717-.116417-.46566-.370417-.79375-.243417-.33866-.613833-.51858-.370417-.17992-.878417-.17992-.508 0-.878417.17992-.370416.17992-.624416.51858-.243417.32809-.370417.79375-.116417.46567-.116417 1.03717z"/><path d="m50.582995 174.82146h-.232833q-.254.0106-.582084.0847-.3175.0741-.592666.32808-.275167.24342-.465667.73025-.1905.47625-.1905 1.29117v2.57175h-.465667v-5.37634h.465667v1.11125h.02117q.09525-.254.264583-.46566.169333-.22225.402167-.39159.232833-.16933.518583-.26458.28575-.0952.613833-.0952h.243417z"/><path d="m51.327631 175.94329q0-.254.08467-.55033.08467-.30692.306916-.56092.22225-.254.624417-.42333.402167-.16933 1.037167-.16933.645583 0 1.026583.16933.381.16933.5715.42333.201083.254.254.55034.05292.28575.05292.53975l-.05292 2.94216q0 .0423 0 .14817.01058.10583.04233.21167.04233.10583.127.1905.08467.0847.243417.0847.105833 0 .201083-.0317v.35984q-.15875.0529-.34925.0529-.232833 0-.381-.0847-.148166-.0952-.232833-.23284-.07408-.14816-.105833-.3175-.02117-.17991-.01058-.35983-.09525.1905-.254.381-.148166.1905-.381.34925-.232833.14817-.550333.24342-.3175.0952-.73025.0952-.306917 0-.624417-.0741-.3175-.0635-.5715-.23283-.254-.17992-.423333-.47625-.15875-.29633-.15875-.762 0-.55033.243417-.86783.254-.3175.60325-.47625.359833-.15875.740833-.20109.381-.0529.645583-.0741l.60325-.0635q.28575-.0318.465667-.0529.179917-.0318.275167-.10583.09525-.0847.127-.24342.04233-.15875.04233-.46566 0-.45509-.1905-.70909-.179917-.254-.423333-.37041-.243417-.127-.486834-.14817-.232833-.0212-.338666-.0212-.497417 0-.804334.127-.306916.127-.486833.32809-.169333.1905-.232833.42333-.0635.23283-.0635.45508zm3.450167.91017q-.116417.0952-.243417.13758-.127.0423-.306917.0741-.169333.0212-.41275.0423-.232833.0212-.560916.0635-.423334.0529-.740834.127-.3175.0741-.529166.21167-.211667.13758-.3175.35983-.105834.21167-.105834.53975 0 .53975.34925.85725.34925.3175.9525.3175.328084 0 .656167-.0952.338667-.10583.60325-.34925.275167-.24342.455083-.635.179917-.39158.1905-.98425z"/><path d="m62.801122 179.52046q-.486833.28575-.941916.40217-.455084.127-1.026584.127-.814916 0-1.534583-.254-.709083-.254-1.248833-.75142-.529167-.508-.836083-1.23825-.306917-.74083-.306917-1.69333 0-.86784.306917-1.5875.306916-.73025.836083-1.23825.529166-.51859 1.248833-.80434.719667-.28575 1.534583-.28575.994834 0 1.725084.30692.740833.30692 1.217083.8255.486833.508.719667 1.17475.243416.66675.243416 1.397 0 .635-.169333 1.09008-.15875.4445-.423333.73025-.264584.28575-.582084.42334-.3175.127-.613833.127-.28575 0-.550333-.16934-.254-.16933-.28575-.55033-.1905.40217-.592667.59267-.391583.1905-.804333.1905-.4445 0-.804334-.14817-.34925-.15875-.60325-.43392-.254-.28575-.391583-.66675-.137583-.381-.137583-.83608 0-.55033.169333-.94192.179917-.39158.455083-.64558.28575-.254.635-.37042.34925-.127.709084-.127.1905 0 .402166.0423.211667.0423.402167.13758.1905.0952.328083.24342.148167.14816.211667.37041h.02117v-.64558h.465666v2.87867q0 .24341.04233.381.05292.13758.127.21166.08467.0741.179916.0953.105834.0212.201084.0212.3175 0 .53975-.1905.22225-.1905.359833-.47625.148167-.29633.211667-.64558.07408-.35984.07408-.68792 0-.81492-.275167-1.44992-.275166-.635-.751416-1.05833-.465667-.43392-1.100667-.65617-.635-.22225-1.354667-.22225-.8255 0-1.471083.30692-.645583.29633-1.100666.79375-.455084.49742-.6985 1.15358-.232834.64559-.232834 1.34409 0 .94191.3175 1.62983.3175.67733.814917 1.12183.497416.4445 1.121833.65617.624417.21167 1.248833.21167.381 0 .836084-.10584.455083-.11641.931333-.39158zm-.687916-3.25967q0-.32808-.07408-.635-.0635-.3175-.232833-.56091-.15875-.24342-.423333-.381-.264584-.14817-.656167-.14817-.338667 0-.592667.127-.254.127-.423333.35983-.169333.23284-.254.55034-.08467.30691-.08467.68791 0 .21167.04233.508.04233.28575.179916.56092.148167.26458.41275.45508.264584.17992.709084.17992.201083 0 .4445-.0529.243416-.0635.455083-.24341.211667-.1905.34925-.51859.148167-.33866.148167-.889z"/><path d="m66.10709 175.94329q0-.254.08467-.55033.08467-.30692.306916-.56092.22225-.254.624417-.42333.402167-.16933 1.037167-.16933.645583 0 1.026583.16933.381.16933.5715.42333.201083.254.254.55034.05292.28575.05292.53975l-.05292 2.94216q0 .0423 0 .14817.01058.10583.04233.21167.04233.10583.127.1905.08467.0847.243417.0847.105833 0 .201083-.0317v.35984q-.15875.0529-.34925.0529-.232833 0-.381-.0847-.148166-.0952-.232833-.23284-.07408-.14816-.105833-.3175-.02117-.17991-.01058-.35983-.09525.1905-.254.381-.148166.1905-.381.34925-.232833.14817-.550333.24342-.3175.0952-.73025.0952-.306917 0-.624417-.0741-.3175-.0635-.5715-.23283-.254-.17992-.423333-.47625-.15875-.29633-.15875-.762 0-.55033.243417-.86783.254-.3175.60325-.47625.359833-.15875.740833-.20109.381-.0529.645583-.0741l.60325-.0635q.28575-.0318.465667-.0529.179917-.0318.275167-.10583.09525-.0847.127-.24342.04233-.15875.04233-.46566 0-.45509-.1905-.70909-.179917-.254-.423333-.37041-.243417-.127-.486834-.14817-.232833-.0212-.338666-.0212-.497417 0-.804334.127-.306916.127-.486833.32809-.169333.1905-.232833.42333-.0635.23283-.0635.45508zm3.450167.91017q-.116417.0952-.243417.13758-.127.0423-.306917.0741-.169333.0212-.41275.0423-.232833.0212-.560916.0635-.423334.0529-.740834.127-.3175.0741-.529166.21167-.211667.13758-.3175.35983-.105834.21167-.105834.53975 0 .53975.34925.85725.34925.3175.9525.3175.328084 0 .656167-.0952.338667-.10583.60325-.34925.275167-.24342.455083-.635.179917-.39158.1905-.98425z"/><path d="m72.40533 180.54704q.105833.381.465666.66675.370417.28575 1.100667.28575.148167 0 .4445-.0529.296333-.0423.582083-.24342.296334-.1905.508-.59267.22225-.40216.22225-1.12183v-.635q-.211666.51858-.687916.79375-.47625.26458-1.0795.26458-.5715 0-.973667-.17991-.391583-.17992-.656167-.45509-.254-.27516-.402166-.61383-.148167-.33867-.22225-.64558-.0635-.3175-.08467-.5715-.01058-.254-.01058-.37042 0-1.397.582083-2.11667.582083-.71966 1.640417-.71966.41275 0 .719666.0952.306917.0952.529167.24341.22225.14817.370417.34925.15875.1905.254.39159h.02117v-.86784h.465667v4.97417q0 .27517-.04233.68792-.04233.41275-.254.80433-.211667.39158-.677334.66675-.455083.28575-1.291166.28575-.22225 0-.529167-.0317-.306917-.0318-.613833-.16933-.296334-.127-.550334-.39159-.254-.26458-.359833-.73025zm1.608666-1.00541q.306917 0 .613834-.0952.3175-.10584.560916-.37042.254-.27517.402167-.74083.15875-.46567.15875-1.19592 0-1.24883-.47625-1.88383-.465667-.64559-1.397-.64559-.423333 0-.719667.14817-.296333.13758-.497416.37042-.201084.22225-.3175.508-.105834.27516-.15875.55033-.05292.27517-.07408.508-.01058.23283-.01058.37042 0 .73025.169333 1.21708.179917.47625.455084.762.28575.27517.624416.39158.338667.10584.66675.10584z"/><path d="m77.585376 177.13921q0-.60325.137584-1.12183.137583-.52917.433916-.92075.306917-.40217.772584-.62442.465666-.23283 1.132416-.23283.66675 0 1.132417.23283.465667.22225.762.62442.306917.39158.4445.92075.137583.51858.137583 1.12183 0 .60325-.137583 1.13242-.137583.51858-.4445.92075-.296333.39158-.762.62441-.465667.22225-1.132417.22225-.66675 0-1.132416-.22225-.465667-.23283-.772584-.62441-.296333-.40217-.433916-.92075-.137584-.52917-.137584-1.13242zm.486834 0q0 .5715.116416 1.03717.127.46566.370417.80433.254.32808.624417.508.370416.17992.878416.17992.508 0 .878417-.17992.370417-.17992.613833-.508.254-.33867.370417-.80433.127-.46567.127-1.03717 0-.5715-.127-1.03717-.116417-.46566-.370417-.79375-.243416-.33866-.613833-.51858-.370417-.17992-.878417-.17992-.508 0-.878416.17992-.370417.17992-.624417.51858-.243417.32809-.370417.79375-.116416.46567-.116416 1.03717z"/><path d="m86.467108 174.82146h-.232833q-.254.0106-.582083.0847-.3175.0741-.592667.32808-.275167.24342-.465667.73025-.1905.47625-.1905 1.29117v2.57175h-.465666v-5.37634h.465666v1.11125h.02117q.09525-.254.264583-.46566.169334-.22225.402167-.39159.232833-.16933.518583-.26458.28575-.0952.613834-.0952h.243416z"/><path d="m87.211746 175.94329q0-.254.08467-.55033.08467-.30692.306917-.56092.22225-.254.624416-.42333.402167-.16933 1.037167-.16933.645583 0 1.026583.16933.381.16933.5715.42333.201083.254.254.55034.05292.28575.05292.53975l-.05292 2.94216q0 .0423 0 .14817.01058.10583.04233.21167.04233.10583.127.1905.08467.0847.243417.0847.105833 0 .201083-.0317v.35984q-.15875.0529-.34925.0529-.232833 0-.381-.0847-.148166-.0952-.232833-.23284-.07408-.14816-.105833-.3175-.02117-.17991-.01058-.35983-.09525.1905-.254.381-.148166.1905-.381.34925-.232833.14817-.550333.24342-.3175.0952-.73025.0952-.306916 0-.624416-.0741-.3175-.0635-.5715-.23283-.254-.17992-.423334-.47625-.15875-.29633-.15875-.762 0-.55033.243417-.86783.254-.3175.60325-.47625.359833-.15875.740833-.20109.381-.0529.645584-.0741l.60325-.0635q.285749-.0318.465666-.0529.179917-.0318.275167-.10583.09525-.0847.127-.24342.04233-.15875.04233-.46566 0-.45509-.1905-.70909-.179917-.254-.423333-.37041-.243417-.127-.486833-.14817-.232834-.0212-.338667-.0212-.497417 0-.804333.127-.306917.127-.486834.32809-.169333.1905-.232833.42333-.0635.23283-.0635.45508zm3.450167.91017q-.116417.0952-.243417.13758-.127.0423-.306917.0741-.169333.0212-.412749.0423-.232834.0212-.560917.0635-.423333.0529-.740833.127-.3175.0741-.529167.21167-.211667.13758-.3175.35983-.105833.21167-.105833.53975 0 .53975.34925.85725.34925.3175.9525.3175.328083 0 .656166-.0952.338667-.10583.60325-.34925.275167-.24342.455083-.635.179917-.39158.1905-.98425z"/><path d="m93.457069 174.45104v.78317q.07408-.15875.211667-.33867.137583-.17991.338666-.3175.201084-.14816.47625-.24341.275167-.0952.635-.0952.550334 0 .973667.28575.423333.27516.53975.79375.08467-.16934.22225-.35984.137583-.1905.34925-.34925.22225-.15875.518583-.26458.296334-.10583.6985-.10583.60325 0 .931334.24341.328083.24342.47625.5715.15875.32809.179914.66675.0318.32809.0318.508v3.59834h-.465664v-3.54542q0-.127-.02117-.40217-.01058-.27516-.127-.56091-.105833-.28575-.34925-.49742-.232833-.21167-.66675-.21167-.275167 0-.5715.0952-.28575.0847-.529167.30692-.243416.21167-.402166.5715-.15875.35983-.15875.889v3.35492h-.465667v-3.54542q0-.10583-.02117-.381-.02117-.27517-.137583-.56092-.105833-.28575-.34925-.508-.232833-.22225-.677333-.22225-.338667 0-.635.14817-.296334.13758-.518584.40217-.222249.254-.359833.61383-.127.34925-.127.77258v3.28084h-.465666v-5.37634z"/><path d="m106.15938 178.27163q-.0529.254-.1905.5715-.127.30691-.381.5715-.254.26458-.66675.4445-.40216.17991-1.00541.17991-.11642 0-.33867-.0212-.22225-.0106-.49742-.0952-.27516-.0847-.5715-.254-.28575-.17992-.52916-.508-.23284-.33867-.39159-.84667-.14816-.508-.14816-1.24883 0-.127.0106-.381.0212-.254.0953-.5715.0741-.3175.22225-.64559.15875-.32808.43392-.60325.27516-.27516.68791-.4445.42334-.17991 1.02659-.17991.30691 0 .70908.0847.40217.0741.762.381.35983.29634.60325.889.24342.58209.23283 1.59809h-4.29683q0 .34925.0741.78316.0847.42334.30692.80434.22225.381.61383.635.39159.254 1.016.254.39159 0 .6985-.10584.30692-.11641.51859-.30691.22225-.1905.34925-.4445.13758-.254.1905-.53975zm-.43391-1.44992q0-.29633-.0741-.67733-.0635-.39159-.26458-.73025-.20108-.33867-.56092-.5715-.35983-.23284-.94191-.23284-.60325 0-.98425.24342-.37042.23283-.59267.5715-.21167.33867-.29633.71967-.0741.381-.0847.67733z"/><path d="m107.9225 174.45104v-1.60866h.46566v1.60866h1.16417v.37042h-1.16417v4.02167q0 .14816 0 .28575.0106.13758.0529.24341.0529.10584.14817.16934.0952.0635.27516.0635.17992 0 .35984-.0423.1905-.0529.32808-.10583v.37042q-.14817.0529-.35983.0952-.20109.0529-.39159.0529-.30691 0-.48683-.0952-.17992-.0847-.26458-.23283-.0847-.15875-.10584-.34925-.0212-.1905-.0212-.40217v-4.07458h-1.06892v-.37042z"/><path d="m110.4248 175.94329q0-.254.0847-.55033.0847-.30692.30692-.56092.22225-.254.62442-.42333.40216-.16933 1.03716-.16933.64559 0 1.02659.16933.381.16933.5715.42333.20108.254.254.55034.0529.28575.0529.53975l-.0529 2.94216q0 .0423 0 .14817.0106.10583.0423.21167.0423.10583.127.1905.0847.0847.24342.0847.10583 0 .20108-.0317v.35984q-.15875.0529-.34925.0529-.23283 0-.381-.0847-.14817-.0952-.23283-.23284-.0741-.14816-.10584-.3175-.0212-.17991-.0106-.35983-.0952.1905-.254.381-.14817.1905-.381.34925-.23283.14817-.55033.24342-.3175.0952-.73025.0952-.30692 0-.62442-.0741-.3175-.0635-.5715-.23283-.254-.17992-.42333-.47625-.15875-.29633-.15875-.762 0-.55033.24341-.86783.254-.3175.60325-.47625.35984-.15875.74084-.20109.381-.0529.64558-.0741l.60325-.0635q.28575-.0318.46567-.0529.17991-.0318.27516-.10583.0952-.0847.127-.24342.0423-.15875.0423-.46566 0-.45509-.1905-.70909-.17992-.254-.42334-.37041-.24341-.127-.48683-.14817-.23283-.0212-.33867-.0212-.49741 0-.80433.127-.30692.127-.48683.32809-.16934.1905-.23284.42333-.0635.23283-.0635.45508zm3.45016.91017q-.11641.0952-.24341.13758-.127.0423-.30692.0741-.16933.0212-.41275.0423-.23283.0212-.56092.0635-.42333.0529-.74083.127-.3175.0741-.52917.21167-.21166.13758-.3175.35983-.10583.21167-.10583.53975 0 .53975.34925.85725.34925.3175.9525.3175.32808 0 .65617-.0952.33866-.10583.60325-.34925.27516-.24342.45508-.635.17992-.39158.1905-.98425z"/><path d="m116.67012 172.41904v7.40834h-.46566v-7.40834z"/><path d="m118.38644 179.48871q0-.1905.13758-.32808.13759-.14817.34925-.14817.20109 0 .33867.13758.13758.13759.13758.33867 0 .21167-.14816.34925-.13759.13758-.32809.13758-.20108 0-.34925-.14816-.13758-.13759-.13758-.33867z"/><path d="m125.40071 177.98588q-.0847.73025-.33867 1.143-.254.40216-.58208.61383-.3175.20108-.65617.24342-.32808.0529-.5715.0529-.635 0-1.10067-.22225-.45508-.23283-.762-.62441-.29633-.40217-.4445-.94192-.13758-.55033-.13758-1.19592 0-.5715.127-1.0795.13758-.51858.43392-.89958.29633-.39158.75141-.61383.46567-.22225 1.13242-.22225.58208 0 .96308.16933.39159.16933.62442.43392.24342.254.34925.56091.11642.30692.14817.58209h-.45509q-.0318-.26459-.14816-.508-.11642-.254-.3175-.4445-.20109-.1905-.49742-.30692-.28575-.11642-.66675-.11642-.96308 0-1.4605.64559-.49742.64558-.49742 1.76741 0 .79375.17992 1.30175.1905.508.47625.81492.28575.29633.62442.41275.34925.11642.67733.11642.51858 0 .83608-.20109.32809-.20108.508-.47625.17992-.27516.254-.56091.0741-.28575.0953-.4445z"/><path d="m126.3886 177.13921q0-.60325.13758-1.12183.13758-.52917.43392-.92075.30691-.40217.77258-.62442.46567-.23283 1.13242-.23283.66675 0 1.13241.23283.46567.22225.762.62442.30692.39158.4445.92075.13759.51858.13759 1.12183 0 .60325-.13759 1.13242-.13758.51858-.4445.92075-.29633.39158-.762.62441-.46566.22225-1.13241.22225-.66675 0-1.13242-.22225-.46567-.23283-.77258-.62441-.29634-.40217-.43392-.92075-.13758-.52917-.13758-1.13242zm.48683 0q0 .5715.11642 1.03717.127.46566.37041.80433.254.32808.62442.508.37042.17992.87842.17992.508 0 .87841-.17992.37042-.17992.61384-.508.254-.33867.37041-.80433.127-.46567.127-1.03717 0-.5715-.127-1.03717-.11641-.46566-.37041-.79375-.24342-.33866-.61384-.51858-.37041-.17992-.87841-.17992-.508 0-.87842.17992-.37042.17992-.62442.51858-.24341.32809-.37041.79375-.11642.46567-.11642 1.03717z"/><path d="m133.20658 174.45104v.78317q.0741-.15875.21166-.33867.13759-.17991.33867-.3175.20108-.14816.47625-.24341.27517-.0952.635-.0952.55033 0 .97367.28575.42333.27516.53975.79375.0847-.16934.22225-.35984.13758-.1905.34925-.34925.22225-.15875.51858-.26458.29633-.10583.6985-.10583.60325 0 .93133.24341.32809.24342.47625.5715.15875.32809.17992.66675.0318.32809.0318.508v3.59834h-.46567v-3.54542q0-.127-.0212-.40217-.0106-.27516-.127-.56091-.10584-.28575-.34925-.49742-.23284-.21167-.66675-.21167-.27517 0-.5715.0952-.28575.0847-.52917.30692-.24342.21167-.40217.5715-.15875.35983-.15875.889v3.35492h-.46566v-3.54542q0-.10583-.0212-.381-.0212-.27517-.13758-.56092-.10584-.28575-.34925-.508-.23284-.22225-.67734-.22225-.33866 0-.635.14817-.29633.13758-.51858.40217-.22225.254-.35983.61383-.127.34925-.127.77258v3.28084h-.46567v-5.37634z"/></g></svg>