
<svg enable-background="new 0 0 100 100" height="100" viewBox="0 0 200 100" width="200" xmlns="http://www.w3.org/2000/svg"><g fill="#630000" transform="matrix(.88888000556 0 0 .88888000556 55.55644238893 -8.86243797418)"><path d="m17.628 23.792a1.326 1.326 0 0 1 -1.326 1.326 1.326 1.326 0 0 1 -1.326-1.326 1.326 1.326 0 0 1 1.326-1.326 1.326 1.326 0 0 1 1.326 1.326z"/><path d="m21.373001 23.792a1.326 1.326 0 0 1 -1.326 1.326 1.326 1.326 0 0 1 -1.326-1.326 1.326 1.326 0 0 1 1.326-1.326 1.326 1.326 0 0 1 1.326 1.326z"/><path d="m25.117 23.792a1.326 1.326 0 0 1 -1.326 1.326 1.326 1.326 0 0 1 -1.326-1.326 1.326 1.326 0 0 1 1.326-1.326 1.326 1.326 0 0 1 1.326 1.326z"/><path d="m28.861 23.792a1.326 1.326 0 0 1 -1.326 1.326 1.326 1.326 0 0 1 -1.326-1.326 1.326 1.326 0 0 1 1.326-1.326 1.326 1.326 0 0 1 1.326 1.326z"/><path d="m32.606001 23.792a1.326 1.326 0 0 1 -1.326 1.326 1.326 1.326 0 0 1 -1.326-1.326 1.326 1.326 0 0 1 1.326-1.326 1.326 1.326 0 0 1 1.326 1.326z"/><path d="m36.348999 23.792a1.326 1.326 0 0 1 -1.326 1.326 1.326 1.326 0 0 1 -1.326-1.326 1.326 1.326 0 0 1 1.326-1.326 1.326 1.326 0 0 1 1.326 1.326z"/><path d="m40.095002 23.792a1.327 1.327 0 0 1 -1.327 1.327 1.327 1.327 0 0 1 -1.327-1.327 1.327 1.327 0 0 1 1.327-1.327 1.327 1.327 0 0 1 1.327 1.327z"/><path d="m43.839001 23.792a1.327 1.327 0 0 1 -1.327 1.327 1.327 1.327 0 0 1 -1.327-1.327 1.327 1.327 0 0 1 1.327-1.327 1.327 1.327 0 0 1 1.327 1.327z"/><path d="m55.07 23.792a1.327 1.327 0 0 1 -1.327 1.327 1.327 1.327 0 0 1 -1.327-1.327 1.327 1.327 0 0 1 1.327-1.327 1.327 1.327 0 0 1 1.327 1.327z"/><path d="m66.302997 23.792a1.326 1.326 0 0 1 -1.326 1.326 1.326 1.326 0 0 1 -1.326-1.326 1.326 1.326 0 0 1 1.326-1.326 1.326 1.326 0 0 1 1.326 1.326z"/><path d="m77.536 23.792a1.327 1.327 0 0 1 -1.327 1.327 1.327 1.327 0 0 1 -1.327-1.327 1.327 1.327 0 0 1 1.327-1.327 1.327 1.327 0 0 1 1.327 1.327z"/><path d="m13.884 27.535999a1.326 1.326 0 0 1 -1.326 1.326 1.326 1.326 0 0 1 -1.326-1.326 1.326 1.326 0 0 1 1.326-1.326 1.326 1.326 0 0 1 1.326 1.326z"/><path d="m17.628 27.535999a1.326 1.326 0 0 1 -1.326 1.326 1.326 1.326 0 0 1 -1.326-1.326 1.326 1.326 0 0 1 1.326-1.326 1.326 1.326 0 0 1 1.326 1.326z"/><path d="m21.373001 27.535999a1.326 1.326 0 0 1 -1.326 1.326 1.326 1.326 0 0 1 -1.326-1.326 1.326 1.326 0 0 1 1.326-1.326 1.326 1.326 0 0 1 1.326 1.326z"/><path d="m25.117 27.535999a1.326 1.326 0 0 1 -1.326 1.326 1.326 1.326 0 0 1 -1.326-1.326 1.326 1.326 0 0 1 1.326-1.326 1.326 1.326 0 0 1 1.326 1.326z"/><path d="m32.606001 27.535999a1.326 1.326 0 0 1 -1.326 1.326 1.326 1.326 0 0 1 -1.326-1.326 1.326 1.326 0 0 1 1.326-1.326 1.326 1.326 0 0 1 1.326 1.326z"/><path d="m36.348999 27.535999a1.326 1.326 0 0 1 -1.326 1.326 1.326 1.326 0 0 1 -1.326-1.326 1.326 1.326 0 0 1 1.326-1.326 1.326 1.326 0 0 1 1.326 1.326z"/><path d="m40.095002 27.535999a1.327 1.327 0 0 1 -1.327 1.327 1.327 1.327 0 0 1 -1.327-1.327 1.327 1.327 0 0 1 1.327-1.327 1.327 1.327 0 0 1 1.327 1.327z"/><path d="m62.558998 27.535999a1.327 1.327 0 0 1 -1.327 1.327 1.327 1.327 0 0 1 -1.327-1.327 1.327 1.327 0 0 1 1.327-1.327 1.327 1.327 0 0 1 1.327 1.327z"/><path d="m70.047001 27.535999a1.326 1.326 0 0 1 -1.326 1.326 1.326 1.326 0 0 1 -1.326-1.326 1.326 1.326 0 0 1 1.326-1.326 1.326 1.326 0 0 1 1.326 1.326z"/><path d="m73.790996 27.535999a1.326 1.326 0 0 1 -1.326 1.326 1.326 1.326 0 0 1 -1.326-1.326 1.326 1.326 0 0 1 1.326-1.326 1.326 1.326 0 0 1 1.326 1.326z"/><path d="m77.536 27.535999a1.327 1.327 0 0 1 -1.327 1.327 1.327 1.327 0 0 1 -1.327-1.327 1.327 1.327 0 0 1 1.327-1.327 1.327 1.327 0 0 1 1.327 1.327z"/><path d="m81.280003 27.535999a1.327 1.327 0 0 1 -1.327 1.327 1.327 1.327 0 0 1 -1.327-1.327 1.327 1.327 0 0 1 1.327-1.327 1.327 1.327 0 0 1 1.327 1.327z"/><path d="m85.022999 27.535999a1.326 1.326 0 0 1 -1.326 1.326 1.326 1.326 0 0 1 -1.326-1.326 1.326 1.326 0 0 1 1.326-1.326 1.326 1.326 0 0 1 1.326 1.326z"/><path d="m88.766003 27.535999a1.327 1.327 0 0 1 -1.327 1.327 1.327 1.327 0 0 1 -1.327-1.327 1.327 1.327 0 0 1 1.327-1.327 1.327 1.327 0 0 1 1.327 1.327z"/><path d="m2.653 31.281a1.327 1.327 0 0 1 -1.327 1.327 1.327 1.327 0 0 1 -1.32700005-1.327 1.327 1.327 0 0 1 1.32700005-1.327 1.327 1.327 0 0 1 1.327 1.327z"/><path d="m6.3970002 31.281a1.327 1.327 0 0 1 -1.327 1.327 1.327 1.327 0 0 1 -1.3270001-1.327 1.327 1.327 0 0 1 1.3270001-1.327 1.327 1.327 0 0 1 1.327 1.327z"/><path d="m10.14 31.281a1.327 1.327 0 0 1 -1.3270003 1.327 1.327 1.327 0 0 1 -1.327-1.327 1.327 1.327 0 0 1 1.327-1.327 1.327 1.327 0 0 1 1.3270003 1.327z"/><path d="m13.884 31.281a1.326 1.326 0 0 1 -1.326 1.326 1.326 1.326 0 0 1 -1.326-1.326 1.326 1.326 0 0 1 1.326-1.326 1.326 1.326 0 0 1 1.326 1.326z"/><path d="m17.628 31.281a1.326 1.326 0 0 1 -1.326 1.326 1.326 1.326 0 0 1 -1.326-1.326 1.326 1.326 0 0 1 1.326-1.326 1.326 1.326 0 0 1 1.326 1.326z"/><path d="m21.373001 31.281a1.326 1.326 0 0 1 -1.326 1.326 1.326 1.326 0 0 1 -1.326-1.326 1.326 1.326 0 0 1 1.326-1.326 1.326 1.326 0 0 1 1.326 1.326z"/><path d="m25.117 31.281a1.326 1.326 0 0 1 -1.326 1.326 1.326 1.326 0 0 1 -1.326-1.326 1.326 1.326 0 0 1 1.326-1.326 1.326 1.326 0 0 1 1.326 1.326z"/><path d="m28.861 31.281a1.326 1.326 0 0 1 -1.326 1.326 1.326 1.326 0 0 1 -1.326-1.326 1.326 1.326 0 0 1 1.326-1.326 1.326 1.326 0 0 1 1.326 1.326z"/><path d="m36.348999 31.281a1.326 1.326 0 0 1 -1.326 1.326 1.326 1.326 0 0 1 -1.326-1.326 1.326 1.326 0 0 1 1.326-1.326 1.326 1.326 0 0 1 1.326 1.326z"/><path d="m40.095002 31.281a1.327 1.327 0 0 1 -1.327 1.327 1.327 1.327 0 0 1 -1.327-1.327 1.327 1.327 0 0 1 1.327-1.327 1.327 1.327 0 0 1 1.327 1.327z"/><path d="m55.068 31.281c0 .729-.592 1.325-1.323 1.325-.733 0-1.329-.594-1.329-1.325 0-.733.596-1.327 1.329-1.327s1.323.594 1.323 1.327z"/><path d="m58.813999 31.281a1.326 1.326 0 0 1 -1.326 1.326 1.326 1.326 0 0 1 -1.326-1.326 1.326 1.326 0 0 1 1.326-1.326 1.326 1.326 0 0 1 1.326 1.326z"/><path d="m62.558998 31.281a1.327 1.327 0 0 1 -1.327 1.327 1.327 1.327 0 0 1 -1.327-1.327 1.327 1.327 0 0 1 1.327-1.327 1.327 1.327 0 0 1 1.327 1.327z"/><path d="m66.302997 31.281a1.326 1.326 0 0 1 -1.326 1.326 1.326 1.326 0 0 1 -1.326-1.326 1.326 1.326 0 0 1 1.326-1.326 1.326 1.326 0 0 1 1.326 1.326z"/><path d="m70.047001 31.281a1.326 1.326 0 0 1 -1.326 1.326 1.326 1.326 0 0 1 -1.326-1.326 1.326 1.326 0 0 1 1.326-1.326 1.326 1.326 0 0 1 1.326 1.326z"/><path d="m73.790996 31.281a1.326 1.326 0 0 1 -1.326 1.326 1.326 1.326 0 0 1 -1.326-1.326 1.326 1.326 0 0 1 1.326-1.326 1.326 1.326 0 0 1 1.326 1.326z"/><path d="m77.536 31.281a1.327 1.327 0 0 1 -1.327 1.327 1.327 1.327 0 0 1 -1.327-1.327 1.327 1.327 0 0 1 1.327-1.327 1.327 1.327 0 0 1 1.327 1.327z"/><path d="m81.280003 31.281a1.327 1.327 0 0 1 -1.327 1.327 1.327 1.327 0 0 1 -1.327-1.327 1.327 1.327 0 0 1 1.327-1.327 1.327 1.327 0 0 1 1.327 1.327z"/><path d="m85.022999 31.281a1.326 1.326 0 0 1 -1.326 1.326 1.326 1.326 0 0 1 -1.326-1.326 1.326 1.326 0 0 1 1.326-1.326 1.326 1.326 0 0 1 1.326 1.326z"/><path d="m88.766003 31.281a1.327 1.327 0 0 1 -1.327 1.327 1.327 1.327 0 0 1 -1.327-1.327 1.327 1.327 0 0 1 1.327-1.327 1.327 1.327 0 0 1 1.327 1.327z"/><path d="m92.512997 31.281a1.327 1.327 0 0 1 -1.327 1.327 1.327 1.327 0 0 1 -1.327-1.327 1.327 1.327 0 0 1 1.327-1.327 1.327 1.327 0 0 1 1.327 1.327z"/><path d="m2.653 35.022999a1.327 1.327 0 0 1 -1.327 1.327 1.327 1.327 0 0 1 -1.32700005-1.327 1.327 1.327 0 0 1 1.32700005-1.327 1.327 1.327 0 0 1 1.327 1.327z"/><path d="m6.3970002 35.022999a1.327 1.327 0 0 1 -1.327 1.327 1.327 1.327 0 0 1 -1.3270001-1.327 1.327 1.327 0 0 1 1.3270001-1.327 1.327 1.327 0 0 1 1.327 1.327z"/><path d="m10.14 35.022999a1.327 1.327 0 0 1 -1.3270003 1.327 1.327 1.327 0 0 1 -1.327-1.327 1.327 1.327 0 0 1 1.327-1.327 1.327 1.327 0 0 1 1.3270003 1.327z"/><path d="m13.884 35.022999a1.326 1.326 0 0 1 -1.326 1.326 1.326 1.326 0 0 1 -1.326-1.326 1.326 1.326 0 0 1 1.326-1.326 1.326 1.326 0 0 1 1.326 1.326z"/><path d="m17.628 35.022999a1.326 1.326 0 0 1 -1.326 1.326 1.326 1.326 0 0 1 -1.326-1.326 1.326 1.326 0 0 1 1.326-1.326 1.326 1.326 0 0 1 1.326 1.326z"/><path d="m21.373001 35.022999a1.326 1.326 0 0 1 -1.326 1.326 1.326 1.326 0 0 1 -1.326-1.326 1.326 1.326 0 0 1 1.326-1.326 1.326 1.326 0 0 1 1.326 1.326z"/><path d="m25.117 35.022999a1.326 1.326 0 0 1 -1.326 1.326 1.326 1.326 0 0 1 -1.326-1.326 1.326 1.326 0 0 1 1.326-1.326 1.326 1.326 0 0 1 1.326 1.326z"/><path d="m28.861 35.022999a1.326 1.326 0 0 1 -1.326 1.326 1.326 1.326 0 0 1 -1.326-1.326 1.326 1.326 0 0 1 1.326-1.326 1.326 1.326 0 0 1 1.326 1.326z"/><path d="m36.348999 35.022999a1.326 1.326 0 0 1 -1.326 1.326 1.326 1.326 0 0 1 -1.326-1.326 1.326 1.326 0 0 1 1.326-1.326 1.326 1.326 0 0 1 1.326 1.326z"/><path d="m43.839001 35.022999a1.327 1.327 0 0 1 -1.327 1.327 1.327 1.327 0 0 1 -1.327-1.327 1.327 1.327 0 0 1 1.327-1.327 1.327 1.327 0 0 1 1.327 1.327z"/><path d="m51.327 35.022999a1.327 1.327 0 0 1 -1.327 1.327 1.327 1.327 0 0 1 -1.327-1.327 1.327 1.327 0 0 1 1.327-1.327 1.327 1.327 0 0 1 1.327 1.327z"/><path d="m55.07 35.022999a1.327 1.327 0 0 1 -1.327 1.327 1.327 1.327 0 0 1 -1.327-1.327 1.327 1.327 0 0 1 1.327-1.327 1.327 1.327 0 0 1 1.327 1.327z"/><path d="m58.813999 35.022999a1.326 1.326 0 0 1 -1.326 1.326 1.326 1.326 0 0 1 -1.326-1.326 1.326 1.326 0 0 1 1.326-1.326 1.326 1.326 0 0 1 1.326 1.326z"/><path d="m62.558998 35.022999a1.327 1.327 0 0 1 -1.327 1.327 1.327 1.327 0 0 1 -1.327-1.327 1.327 1.327 0 0 1 1.327-1.327 1.327 1.327 0 0 1 1.327 1.327z"/><path d="m66.302997 35.022999a1.326 1.326 0 0 1 -1.326 1.326 1.326 1.326 0 0 1 -1.326-1.326 1.326 1.326 0 0 1 1.326-1.326 1.326 1.326 0 0 1 1.326 1.326z"/><path d="m70.047001 35.022999a1.326 1.326 0 0 1 -1.326 1.326 1.326 1.326 0 0 1 -1.326-1.326 1.326 1.326 0 0 1 1.326-1.326 1.326 1.326 0 0 1 1.326 1.326z"/><path d="m73.790996 35.022999a1.326 1.326 0 0 1 -1.326 1.326 1.326 1.326 0 0 1 -1.326-1.326 1.326 1.326 0 0 1 1.326-1.326 1.326 1.326 0 0 1 1.326 1.326z"/><path d="m77.536 35.022999a1.327 1.327 0 0 1 -1.327 1.327 1.327 1.327 0 0 1 -1.327-1.327 1.327 1.327 0 0 1 1.327-1.327 1.327 1.327 0 0 1 1.327 1.327z"/><path d="m81.280003 35.022999a1.327 1.327 0 0 1 -1.327 1.327 1.327 1.327 0 0 1 -1.327-1.327 1.327 1.327 0 0 1 1.327-1.327 1.327 1.327 0 0 1 1.327 1.327z"/><path d="m85.022999 35.022999a1.326 1.326 0 0 1 -1.326 1.326 1.326 1.326 0 0 1 -1.326-1.326 1.326 1.326 0 0 1 1.326-1.326 1.326 1.326 0 0 1 1.326 1.326z"/><path d="m88.766003 35.022999a1.327 1.327 0 0 1 -1.327 1.327 1.327 1.327 0 0 1 -1.327-1.327 1.327 1.327 0 0 1 1.327-1.327 1.327 1.327 0 0 1 1.327 1.327z"/><path d="m92.512997 35.022999a1.327 1.327 0 0 1 -1.327 1.327 1.327 1.327 0 0 1 -1.327-1.327 1.327 1.327 0 0 1 1.327-1.327 1.327 1.327 0 0 1 1.327 1.327z"/><path d="m2.653 38.768002a1.327 1.327 0 0 1 -1.327 1.327 1.327 1.327 0 0 1 -1.32700005-1.327 1.327 1.327 0 0 1 1.32700005-1.327 1.327 1.327 0 0 1 1.327 1.327z"/><path d="m6.3970002 38.768002a1.327 1.327 0 0 1 -1.327 1.327 1.327 1.327 0 0 1 -1.3270001-1.327 1.327 1.327 0 0 1 1.3270001-1.327 1.327 1.327 0 0 1 1.327 1.327z"/><path d="m10.14 38.768002a1.327 1.327 0 0 1 -1.3270003 1.327 1.327 1.327 0 0 1 -1.327-1.327 1.327 1.327 0 0 1 1.327-1.327 1.327 1.327 0 0 1 1.3270003 1.327z"/><path d="m13.884 38.768002a1.326 1.326 0 0 1 -1.326 1.326 1.326 1.326 0 0 1 -1.326-1.326 1.326 1.326 0 0 1 1.326-1.326 1.326 1.326 0 0 1 1.326 1.326z"/><path d="m17.628 38.768002a1.326 1.326 0 0 1 -1.326 1.326 1.326 1.326 0 0 1 -1.326-1.326 1.326 1.326 0 0 1 1.326-1.326 1.326 1.326 0 0 1 1.326 1.326z"/><path d="m21.373001 38.768002a1.326 1.326 0 0 1 -1.326 1.326 1.326 1.326 0 0 1 -1.326-1.326 1.326 1.326 0 0 1 1.326-1.326 1.326 1.326 0 0 1 1.326 1.326z"/><path d="m25.117 38.768002a1.326 1.326 0 0 1 -1.326 1.326 1.326 1.326 0 0 1 -1.326-1.326 1.326 1.326 0 0 1 1.326-1.326 1.326 1.326 0 0 1 1.326 1.326z"/><path d="m28.861 38.768002a1.326 1.326 0 0 1 -1.326 1.326 1.326 1.326 0 0 1 -1.326-1.326 1.326 1.326 0 0 1 1.326-1.326 1.326 1.326 0 0 1 1.326 1.326z"/><path d="m47.583001 38.768002a1.327 1.327 0 0 1 -1.327 1.327 1.327 1.327 0 0 1 -1.327001-1.327 1.327 1.327 0 0 1 1.327001-1.327 1.327 1.327 0 0 1 1.327 1.327z"/><path d="m51.327 38.768002a1.327 1.327 0 0 1 -1.327 1.327 1.327 1.327 0 0 1 -1.327-1.327 1.327 1.327 0 0 1 1.327-1.327 1.327 1.327 0 0 1 1.327 1.327z"/><path d="m55.07 38.768002a1.327 1.327 0 0 1 -1.327 1.327 1.327 1.327 0 0 1 -1.327-1.327 1.327 1.327 0 0 1 1.327-1.327 1.327 1.327 0 0 1 1.327 1.327z"/><path d="m58.813999 38.768002a1.326 1.326 0 0 1 -1.326 1.326 1.326 1.326 0 0 1 -1.326-1.326 1.326 1.326 0 0 1 1.326-1.326 1.326 1.326 0 0 1 1.326 1.326z"/><path d="m62.558998 38.768002a1.327 1.327 0 0 1 -1.327 1.327 1.327 1.327 0 0 1 -1.327-1.327 1.327 1.327 0 0 1 1.327-1.327 1.327 1.327 0 0 1 1.327 1.327z"/><path d="m66.302997 38.768002a1.326 1.326 0 0 1 -1.326 1.326 1.326 1.326 0 0 1 -1.326-1.326 1.326 1.326 0 0 1 1.326-1.326 1.326 1.326 0 0 1 1.326 1.326z"/><path d="m70.047001 38.768002a1.326 1.326 0 0 1 -1.326 1.326 1.326 1.326 0 0 1 -1.326-1.326 1.326 1.326 0 0 1 1.326-1.326 1.326 1.326 0 0 1 1.326 1.326z"/><path d="m73.790996 38.768002a1.326 1.326 0 0 1 -1.326 1.326 1.326 1.326 0 0 1 -1.326-1.326 1.326 1.326 0 0 1 1.326-1.326 1.326 1.326 0 0 1 1.326 1.326z"/><path d="m77.536 38.768002a1.327 1.327 0 0 1 -1.327 1.327 1.327 1.327 0 0 1 -1.327-1.327 1.327 1.327 0 0 1 1.327-1.327 1.327 1.327 0 0 1 1.327 1.327z"/><path d="m81.280003 38.768002a1.327 1.327 0 0 1 -1.327 1.327 1.327 1.327 0 0 1 -1.327-1.327 1.327 1.327 0 0 1 1.327-1.327 1.327 1.327 0 0 1 1.327 1.327z"/><path d="m85.022999 38.768002a1.326 1.326 0 0 1 -1.326 1.326 1.326 1.326 0 0 1 -1.326-1.326 1.326 1.326 0 0 1 1.326-1.326 1.326 1.326 0 0 1 1.326 1.326z"/><path d="m88.766003 38.768002a1.327 1.327 0 0 1 -1.327 1.327 1.327 1.327 0 0 1 -1.327-1.327 1.327 1.327 0 0 1 1.327-1.327 1.327 1.327 0 0 1 1.327 1.327z"/><path d="m92.512997 38.768002a1.327 1.327 0 0 1 -1.327 1.327 1.327 1.327 0 0 1 -1.327-1.327 1.327 1.327 0 0 1 1.327-1.327 1.327 1.327 0 0 1 1.327 1.327z"/><path d="m13.884 42.513a1.326 1.326 0 0 1 -1.326 1.326 1.326 1.326 0 0 1 -1.326-1.326 1.326 1.326 0 0 1 1.326-1.325999 1.326 1.326 0 0 1 1.326 1.325999z"/><path d="m17.628 42.513a1.326 1.326 0 0 1 -1.326 1.326 1.326 1.326 0 0 1 -1.326-1.326 1.326 1.326 0 0 1 1.326-1.325999 1.326 1.326 0 0 1 1.326 1.325999z"/><path d="m21.373001 42.513a1.326 1.326 0 0 1 -1.326 1.326 1.326 1.326 0 0 1 -1.326-1.326 1.326 1.326 0 0 1 1.326-1.325999 1.326 1.326 0 0 1 1.326 1.325999z"/><path d="m25.117 42.513a1.326 1.326 0 0 1 -1.326 1.326 1.326 1.326 0 0 1 -1.326-1.326 1.326 1.326 0 0 1 1.326-1.325999 1.326 1.326 0 0 1 1.326 1.325999z"/><path d="m28.861 42.513a1.326 1.326 0 0 1 -1.326 1.326 1.326 1.326 0 0 1 -1.326-1.326 1.326 1.326 0 0 1 1.326-1.325999 1.326 1.326 0 0 1 1.326 1.325999z"/><path d="m32.606001 42.513a1.326 1.326 0 0 1 -1.326 1.326 1.326 1.326 0 0 1 -1.326-1.326 1.326 1.326 0 0 1 1.326-1.325999 1.326 1.326 0 0 1 1.326 1.325999z"/><path d="m47.583001 42.513a1.327 1.327 0 0 1 -1.327 1.327001 1.327 1.327 0 0 1 -1.327001-1.327001 1.327 1.327 0 0 1 1.327001-1.327 1.327 1.327 0 0 1 1.327 1.327z"/><path d="m51.327 42.513a1.327 1.327 0 0 1 -1.327 1.327001 1.327 1.327 0 0 1 -1.327-1.327001 1.327 1.327 0 0 1 1.327-1.327 1.327 1.327 0 0 1 1.327 1.327z"/><path d="m55.07 42.513a1.327 1.327 0 0 1 -1.327 1.327001 1.327 1.327 0 0 1 -1.327-1.327001 1.327 1.327 0 0 1 1.327-1.327 1.327 1.327 0 0 1 1.327 1.327z"/><path d="m58.813999 42.513a1.326 1.326 0 0 1 -1.326 1.326 1.326 1.326 0 0 1 -1.326-1.326 1.326 1.326 0 0 1 1.326-1.325999 1.326 1.326 0 0 1 1.326 1.325999z"/><path d="m62.558998 42.513a1.327 1.327 0 0 1 -1.327 1.327001 1.327 1.327 0 0 1 -1.327-1.327001 1.327 1.327 0 0 1 1.327-1.327 1.327 1.327 0 0 1 1.327 1.327z"/><path d="m66.302997 42.513a1.326 1.326 0 0 1 -1.326 1.326 1.326 1.326 0 0 1 -1.326-1.326 1.326 1.326 0 0 1 1.326-1.325999 1.326 1.326 0 0 1 1.326 1.325999z"/><path d="m70.047001 42.513a1.326 1.326 0 0 1 -1.326 1.326 1.326 1.326 0 0 1 -1.326-1.326 1.326 1.326 0 0 1 1.326-1.325999 1.326 1.326 0 0 1 1.326 1.325999z"/><path d="m73.790996 42.513a1.326 1.326 0 0 1 -1.326 1.326 1.326 1.326 0 0 1 -1.326-1.326 1.326 1.326 0 0 1 1.326-1.325999 1.326 1.326 0 0 1 1.326 1.325999z"/><path d="m77.536 42.513a1.327 1.327 0 0 1 -1.327 1.327001 1.327 1.327 0 0 1 -1.327-1.327001 1.327 1.327 0 0 1 1.327-1.327 1.327 1.327 0 0 1 1.327 1.327z"/><path d="m81.280003 42.513a1.327 1.327 0 0 1 -1.327 1.327001 1.327 1.327 0 0 1 -1.327-1.327001 1.327 1.327 0 0 1 1.327-1.327 1.327 1.327 0 0 1 1.327 1.327z"/><path d="m85.022999 42.513a1.326 1.326 0 0 1 -1.326 1.326 1.326 1.326 0 0 1 -1.326-1.326 1.326 1.326 0 0 1 1.326-1.325999 1.326 1.326 0 0 1 1.326 1.325999z"/><path d="m92.512997 42.513a1.327 1.327 0 0 1 -1.327 1.327001 1.327 1.327 0 0 1 -1.327-1.327001 1.327 1.327 0 0 1 1.327-1.327 1.327 1.327 0 0 1 1.327 1.327z"/><path d="m13.884 46.257a1.326 1.326 0 0 1 -1.326 1.326 1.326 1.326 0 0 1 -1.326-1.326 1.326 1.326 0 0 1 1.326-1.326 1.326 1.326 0 0 1 1.326 1.326z"/><path d="m17.628 46.257a1.326 1.326 0 0 1 -1.326 1.326 1.326 1.326 0 0 1 -1.326-1.326 1.326 1.326 0 0 1 1.326-1.326 1.326 1.326 0 0 1 1.326 1.326z"/><path d="m21.373001 46.257a1.326 1.326 0 0 1 -1.326 1.326 1.326 1.326 0 0 1 -1.326-1.326 1.326 1.326 0 0 1 1.326-1.326 1.326 1.326 0 0 1 1.326 1.326z"/><path d="m25.117 46.257a1.326 1.326 0 0 1 -1.326 1.326 1.326 1.326 0 0 1 -1.326-1.326 1.326 1.326 0 0 1 1.326-1.326 1.326 1.326 0 0 1 1.326 1.326z"/><path d="m28.861 46.257a1.326 1.326 0 0 1 -1.326 1.326 1.326 1.326 0 0 1 -1.326-1.326 1.326 1.326 0 0 1 1.326-1.326 1.326 1.326 0 0 1 1.326 1.326z"/><path d="m47.583001 46.257a1.327 1.327 0 0 1 -1.327 1.327 1.327 1.327 0 0 1 -1.327001-1.327 1.327 1.327 0 0 1 1.327001-1.327 1.327 1.327 0 0 1 1.327 1.327z"/><path d="m55.07 46.257a1.327 1.327 0 0 1 -1.327 1.327 1.327 1.327 0 0 1 -1.327-1.327 1.327 1.327 0 0 1 1.327-1.327 1.327 1.327 0 0 1 1.327 1.327z"/><path d="m58.813999 46.257a1.326 1.326 0 0 1 -1.326 1.326 1.326 1.326 0 0 1 -1.326-1.326 1.326 1.326 0 0 1 1.326-1.326 1.326 1.326 0 0 1 1.326 1.326z"/><path d="m62.558998 46.257a1.327 1.327 0 0 1 -1.327 1.327 1.327 1.327 0 0 1 -1.327-1.327 1.327 1.327 0 0 1 1.327-1.327 1.327 1.327 0 0 1 1.327 1.327z"/><path d="m66.302997 46.257a1.326 1.326 0 0 1 -1.326 1.326 1.326 1.326 0 0 1 -1.326-1.326 1.326 1.326 0 0 1 1.326-1.326 1.326 1.326 0 0 1 1.326 1.326z"/><path d="m70.047001 46.257a1.326 1.326 0 0 1 -1.326 1.326 1.326 1.326 0 0 1 -1.326-1.326 1.326 1.326 0 0 1 1.326-1.326 1.326 1.326 0 0 1 1.326 1.326z"/><path d="m73.790996 46.257a1.326 1.326 0 0 1 -1.326 1.326 1.326 1.326 0 0 1 -1.326-1.326 1.326 1.326 0 0 1 1.326-1.326 1.326 1.326 0 0 1 1.326 1.326z"/><path d="m77.536 46.257a1.327 1.327 0 0 1 -1.327 1.327 1.327 1.327 0 0 1 -1.327-1.327 1.327 1.327 0 0 1 1.327-1.327 1.327 1.327 0 0 1 1.327 1.327z"/><path d="m81.280003 46.257a1.327 1.327 0 0 1 -1.327 1.327 1.327 1.327 0 0 1 -1.327-1.327 1.327 1.327 0 0 1 1.327-1.327 1.327 1.327 0 0 1 1.327 1.327z"/><path d="m85.022999 46.257a1.326 1.326 0 0 1 -1.326 1.326 1.326 1.326 0 0 1 -1.326-1.326 1.326 1.326 0 0 1 1.326-1.326 1.326 1.326 0 0 1 1.326 1.326z"/><path d="m88.766003 46.257a1.327 1.327 0 0 1 -1.327 1.327 1.327 1.327 0 0 1 -1.327-1.327 1.327 1.327 0 0 1 1.327-1.327 1.327 1.327 0 0 1 1.327 1.327z"/><path d="m17.628 50a1.326 1.326 0 0 1 -1.326 1.326 1.326 1.326 0 0 1 -1.326-1.326 1.326 1.326 0 0 1 1.326-1.326 1.326 1.326 0 0 1 1.326 1.326z"/><path d="m21.373001 50a1.326 1.326 0 0 1 -1.326 1.326 1.326 1.326 0 0 1 -1.326-1.326 1.326 1.326 0 0 1 1.326-1.326 1.326 1.326 0 0 1 1.326 1.326z"/><path d="m25.117 50a1.326 1.326 0 0 1 -1.326 1.326 1.326 1.326 0 0 1 -1.326-1.326 1.326 1.326 0 0 1 1.326-1.326 1.326 1.326 0 0 1 1.326 1.326z"/><path d="m43.839001 50a1.327 1.327 0 0 1 -1.327 1.327 1.327 1.327 0 0 1 -1.327-1.327 1.327 1.327 0 0 1 1.327-1.327 1.327 1.327 0 0 1 1.327 1.327z"/><path d="m47.583001 50a1.327 1.327 0 0 1 -1.327 1.327 1.327 1.327 0 0 1 -1.327001-1.327 1.327 1.327 0 0 1 1.327001-1.327 1.327 1.327 0 0 1 1.327 1.327z"/><path d="m51.327 50a1.327 1.327 0 0 1 -1.327 1.327 1.327 1.327 0 0 1 -1.327-1.327 1.327 1.327 0 0 1 1.327-1.327 1.327 1.327 0 0 1 1.327 1.327z"/><path d="m55.07 50a1.327 1.327 0 0 1 -1.327 1.327 1.327 1.327 0 0 1 -1.327-1.327 1.327 1.327 0 0 1 1.327-1.327 1.327 1.327 0 0 1 1.327 1.327z"/><path d="m58.813999 50a1.326 1.326 0 0 1 -1.326 1.326 1.326 1.326 0 0 1 -1.326-1.326 1.326 1.326 0 0 1 1.326-1.326 1.326 1.326 0 0 1 1.326 1.326z"/><path d="m62.558998 50a1.327 1.327 0 0 1 -1.327 1.327 1.327 1.327 0 0 1 -1.327-1.327 1.327 1.327 0 0 1 1.327-1.327 1.327 1.327 0 0 1 1.327 1.327z"/><path d="m66.302997 50a1.326 1.326 0 0 1 -1.326 1.326 1.326 1.326 0 0 1 -1.326-1.326 1.326 1.326 0 0 1 1.326-1.326 1.326 1.326 0 0 1 1.326 1.326z"/><path d="m70.047001 50a1.326 1.326 0 0 1 -1.326 1.326 1.326 1.326 0 0 1 -1.326-1.326 1.326 1.326 0 0 1 1.326-1.326 1.326 1.326 0 0 1 1.326 1.326z"/><path d="m73.790996 50a1.326 1.326 0 0 1 -1.326 1.326 1.326 1.326 0 0 1 -1.326-1.326 1.326 1.326 0 0 1 1.326-1.326 1.326 1.326 0 0 1 1.326 1.326z"/><path d="m77.536 50a1.327 1.327 0 0 1 -1.327 1.327 1.327 1.327 0 0 1 -1.327-1.327 1.327 1.327 0 0 1 1.327-1.327 1.327 1.327 0 0 1 1.327 1.327z"/><path d="m81.280003 50a1.327 1.327 0 0 1 -1.327 1.327 1.327 1.327 0 0 1 -1.327-1.327 1.327 1.327 0 0 1 1.327-1.327 1.327 1.327 0 0 1 1.327 1.327z"/><path d="m85.022999 50a1.326 1.326 0 0 1 -1.326 1.326 1.326 1.326 0 0 1 -1.326-1.326 1.326 1.326 0 0 1 1.326-1.326 1.326 1.326 0 0 1 1.326 1.326z"/><path d="m21.373 53.747c0 .729-.594 1.323-1.326 1.323-.733 0-1.327-.594-1.327-1.323 0-.735.594-1.329 1.327-1.329.732 0 1.326.594 1.326 1.329z"/><path d="m25.118 53.747c0 .729-.594 1.323-1.327 1.323-.732 0-1.326-.594-1.326-1.323 0-.735.593-1.329 1.326-1.329.732 0 1.327.594 1.327 1.329z"/><path d="m28.861 53.747c0 .729-.594 1.323-1.326 1.323-.733 0-1.327-.594-1.327-1.323 0-.735.594-1.329 1.327-1.329.732 0 1.326.594 1.326 1.329z"/><path d="m43.838 53.747c0 .729-.594 1.323-1.326 1.323-.733 0-1.327-.594-1.327-1.323 0-.735.594-1.329 1.327-1.329.732 0 1.326.594 1.326 1.329z"/><path d="m47.583 53.747c0 .729-.594 1.323-1.327 1.323-.732 0-1.326-.594-1.326-1.323 0-.735.594-1.329 1.326-1.329.733 0 1.327.594 1.327 1.329z"/><path d="m51.327 53.747c0 .729-.595 1.323-1.327 1.323-.734 0-1.327-.594-1.327-1.323 0-.735.593-1.329 1.327-1.329.732 0 1.327.594 1.327 1.329z"/><path d="m55.068 53.747c0 .729-.592 1.323-1.323 1.323-.733 0-1.329-.594-1.329-1.323 0-.735.596-1.329 1.329-1.329s1.323.594 1.323 1.329z"/><path d="m58.814 53.747c0 .729-.596 1.323-1.328 1.323-.731 0-1.324-.594-1.324-1.323 0-.735.593-1.329 1.324-1.329.733 0 1.328.594 1.328 1.329z"/><path d="m62.559 53.747c0 .729-.594 1.323-1.326 1.323s-1.326-.594-1.326-1.323c0-.735.594-1.329 1.326-1.329s1.326.594 1.326 1.329z"/><path d="m70.046 53.747c0 .729-.592 1.323-1.325 1.323-.732 0-1.326-.594-1.326-1.323 0-.735.594-1.329 1.326-1.329.733 0 1.325.594 1.325 1.329z"/><path d="m77.536 53.747c0 .729-.595 1.323-1.327 1.323s-1.327-.594-1.327-1.323c0-.735.595-1.329 1.327-1.329s1.327.594 1.327 1.329z"/><path d="m81.279 53.747c0 .729-.594 1.323-1.326 1.323s-1.327-.594-1.327-1.323c0-.735.595-1.329 1.327-1.329.735 0 1.326.594 1.326 1.329z"/><path d="m28.861 57.488998a1.326 1.326 0 0 1 -1.326 1.326 1.326 1.326 0 0 1 -1.326-1.326 1.326 1.326 0 0 1 1.326-1.326 1.326 1.326 0 0 1 1.326 1.326z"/><path d="m32.606001 57.488998a1.326 1.326 0 0 1 -1.326 1.326 1.326 1.326 0 0 1 -1.326-1.326 1.326 1.326 0 0 1 1.326-1.326 1.326 1.326 0 0 1 1.326 1.326z"/><path d="m47.583001 57.488998a1.327 1.327 0 0 1 -1.327 1.327 1.327 1.327 0 0 1 -1.327001-1.327 1.327 1.327 0 0 1 1.327001-1.327 1.327 1.327 0 0 1 1.327 1.327z"/><path d="m51.327 57.488998a1.327 1.327 0 0 1 -1.327 1.327 1.327 1.327 0 0 1 -1.327-1.327 1.327 1.327 0 0 1 1.327-1.327 1.327 1.327 0 0 1 1.327 1.327z"/><path d="m55.07 57.488998a1.327 1.327 0 0 1 -1.327 1.327 1.327 1.327 0 0 1 -1.327-1.327 1.327 1.327 0 0 1 1.327-1.327 1.327 1.327 0 0 1 1.327 1.327z"/><path d="m58.813999 57.488998a1.326 1.326 0 0 1 -1.326 1.326 1.326 1.326 0 0 1 -1.326-1.326 1.326 1.326 0 0 1 1.326-1.326 1.326 1.326 0 0 1 1.326 1.326z"/><path d="m28.861 61.234001a1.326 1.326 0 0 1 -1.326 1.326 1.326 1.326 0 0 1 -1.326-1.326 1.326 1.326 0 0 1 1.326-1.326 1.326 1.326 0 0 1 1.326 1.326z"/><path d="m32.606001 61.234001a1.326 1.326 0 0 1 -1.326 1.326 1.326 1.326 0 0 1 -1.326-1.326 1.326 1.326 0 0 1 1.326-1.326 1.326 1.326 0 0 1 1.326 1.326z"/><path d="m25.117 61.234001a1.326 1.326 0 0 1 -1.326 1.326 1.326 1.326 0 0 1 -1.326-1.326 1.326 1.326 0 0 1 1.326-1.326 1.326 1.326 0 0 1 1.326 1.326z"/><path d="m36.348999 61.234001a1.326 1.326 0 0 1 -1.326 1.326 1.326 1.326 0 0 1 -1.326-1.326 1.326 1.326 0 0 1 1.326-1.326 1.326 1.326 0 0 1 1.326 1.326z"/><path d="m51.327 61.234001a1.327 1.327 0 0 1 -1.327 1.327 1.327 1.327 0 0 1 -1.327-1.327 1.327 1.327 0 0 1 1.327-1.327 1.327 1.327 0 0 1 1.327 1.327z"/><path d="m55.068 61.234c0 .731-.592 1.324-1.323 1.324-.733 0-1.329-.593-1.329-1.324 0-.733.596-1.327 1.329-1.327s1.323.594 1.323 1.327z"/><path d="m58.813999 61.234001a1.326 1.326 0 0 1 -1.326 1.326 1.326 1.326 0 0 1 -1.326-1.326 1.326 1.326 0 0 1 1.326-1.326 1.326 1.326 0 0 1 1.326 1.326z"/><path d="m77.536 61.234001a1.327 1.327 0 0 1 -1.327 1.327 1.327 1.327 0 0 1 -1.327-1.327 1.327 1.327 0 0 1 1.327-1.327 1.327 1.327 0 0 1 1.327 1.327z"/><path d="m81.280003 61.234001a1.327 1.327 0 0 1 -1.327 1.327 1.327 1.327 0 0 1 -1.327-1.327 1.327 1.327 0 0 1 1.327-1.327 1.327 1.327 0 0 1 1.327 1.327z"/><path d="m85.022999 61.234001a1.326 1.326 0 0 1 -1.326 1.326 1.326 1.326 0 0 1 -1.326-1.326 1.326 1.326 0 0 1 1.326-1.326 1.326 1.326 0 0 1 1.326 1.326z"/><path d="m88.766003 61.234001a1.327 1.327 0 0 1 -1.327 1.327 1.327 1.327 0 0 1 -1.327-1.327 1.327 1.327 0 0 1 1.327-1.327 1.327 1.327 0 0 1 1.327 1.327z"/><path d="m28.861 64.978996a1.326 1.326 0 0 1 -1.326 1.326 1.326 1.326 0 0 1 -1.326-1.326 1.326 1.326 0 0 1 1.326-1.326 1.326 1.326 0 0 1 1.326 1.326z"/><path d="m32.606001 64.978996a1.326 1.326 0 0 1 -1.326 1.326 1.326 1.326 0 0 1 -1.326-1.326 1.326 1.326 0 0 1 1.326-1.326 1.326 1.326 0 0 1 1.326 1.326z"/><path d="m36.348999 64.978996a1.326 1.326 0 0 1 -1.326 1.326 1.326 1.326 0 0 1 -1.326-1.326 1.326 1.326 0 0 1 1.326-1.326 1.326 1.326 0 0 1 1.326 1.326z"/><path d="m51.327 64.978996a1.327 1.327 0 0 1 -1.327 1.327 1.327 1.327 0 0 1 -1.327-1.327 1.327 1.327 0 0 1 1.327-1.327 1.327 1.327 0 0 1 1.327 1.327z"/><path d="m55.068 64.979c0 .731-.592 1.326-1.323 1.326-.733 0-1.329-.595-1.329-1.326s.596-1.328 1.329-1.328c.734-.003 1.323.595 1.323 1.328z"/><path d="m62.558998 64.978996a1.327 1.327 0 0 1 -1.327 1.327 1.327 1.327 0 0 1 -1.327-1.327 1.327 1.327 0 0 1 1.327-1.327 1.327 1.327 0 0 1 1.327 1.327z"/><path d="m81.280003 64.978996a1.327 1.327 0 0 1 -1.327 1.327 1.327 1.327 0 0 1 -1.327-1.327 1.327 1.327 0 0 1 1.327-1.327 1.327 1.327 0 0 1 1.327 1.327z"/><path d="m85.022999 64.978996a1.326 1.326 0 0 1 -1.326 1.326 1.326 1.326 0 0 1 -1.326-1.326 1.326 1.326 0 0 1 1.326-1.326 1.326 1.326 0 0 1 1.326 1.326z"/><path d="m85.022999 68.722a1.326 1.326 0 0 1 -1.326 1.326 1.326 1.326 0 0 1 -1.326-1.326 1.326 1.326 0 0 1 1.326-1.326 1.326 1.326 0 0 1 1.326 1.326z"/><path d="m88.766003 64.978996a1.327 1.327 0 0 1 -1.327 1.327 1.327 1.327 0 0 1 -1.327-1.327 1.327 1.327 0 0 1 1.327-1.327 1.327 1.327 0 0 1 1.327 1.327z"/><path d="m92.512997 64.978996a1.327 1.327 0 0 1 -1.327 1.327 1.327 1.327 0 0 1 -1.327-1.327 1.327 1.327 0 0 1 1.327-1.327 1.327 1.327 0 0 1 1.327 1.327z"/><path d="m28.861 68.722a1.326 1.326 0 0 1 -1.326 1.326 1.326 1.326 0 0 1 -1.326-1.326 1.326 1.326 0 0 1 1.326-1.326 1.326 1.326 0 0 1 1.326 1.326z"/><path d="m32.606001 68.722a1.326 1.326 0 0 1 -1.326 1.326 1.326 1.326 0 0 1 -1.326-1.326 1.326 1.326 0 0 1 1.326-1.326 1.326 1.326 0 0 1 1.326 1.326z"/><path d="m55.07 68.722a1.327 1.327 0 0 1 -1.327 1.327 1.327 1.327 0 0 1 -1.327-1.327 1.327 1.327 0 0 1 1.327-1.327 1.327 1.327 0 0 1 1.327 1.327z"/><path d="m81.280003 68.722a1.327 1.327 0 0 1 -1.327 1.327 1.327 1.327 0 0 1 -1.327-1.327 1.327 1.327 0 0 1 1.327-1.327 1.327 1.327 0 0 1 1.327 1.327z"/><path d="m88.766003 68.722a1.327 1.327 0 0 1 -1.327 1.327 1.327 1.327 0 0 1 -1.327-1.327 1.327 1.327 0 0 1 1.327-1.327 1.327 1.327 0 0 1 1.327 1.327z"/><path d="m28.861 72.466003a1.326 1.326 0 0 1 -1.326 1.326 1.326 1.326 0 0 1 -1.326-1.326 1.326 1.326 0 0 1 1.326-1.326 1.326 1.326 0 0 1 1.326 1.326z"/><path d="m28.861 76.209a1.326 1.326 0 0 1 -1.326 1.326 1.326 1.326 0 0 1 -1.326-1.326 1.326 1.326 0 0 1 1.326-1.326 1.326 1.326 0 0 1 1.326 1.326z"/><path d="m96.256 31.281a1.326 1.326 0 0 1 -1.326 1.326 1.326 1.326 0 0 1 -1.326-1.326 1.326 1.326 0 0 1 1.326-1.326 1.326 1.326 0 0 1 1.326 1.326z"/><path d="m96.256 35.022999a1.326 1.326 0 0 1 -1.326 1.326 1.326 1.326 0 0 1 -1.326-1.326 1.326 1.326 0 0 1 1.326-1.326 1.326 1.326 0 0 1 1.326 1.326z"/><path d="m100 35.022999a1.326 1.326 0 0 1 -1.325996 1.326 1.326 1.326 0 0 1 -1.326-1.326 1.326 1.326 0 0 1 1.326-1.326 1.326 1.326 0 0 1 1.325996 1.326z"/><path d="m96.256 72.466003a1.326 1.326 0 0 1 -1.326 1.326 1.326 1.326 0 0 1 -1.326-1.326 1.326 1.326 0 0 1 1.326-1.326 1.326 1.326 0 0 1 1.326 1.326z"/></g><g fill="#000080" stroke="#00008c" stroke-width=".673792" transform="matrix(.88888893 0 0 .88888893 11.111107 -43.054244)"><path d="m10.618774 147.72726h.458179c.404275 0 .512082-.0539.619889-.29646l2.371749-5.95633h8.947963l2.371749 5.95633c.08086.24256.215614.29646.619889.29646h.485131c.296469 0 .350372-.13475.242565-.32342l-7.46562-18.62362c-.08086-.24256-.188662-.32342-.458178-.32342h-.512083c-.242565 0-.377323.0809-.458179.32342l-7.465619 18.62362c-.08086.18867-.0539.32342.242565.32342zm12.020456-7.30391h-8.193315l3.827141-9.56785c.16171-.51208.188661-1.02416.215613-1.15892h.08085c.02695.13476.08085.64684.242566 1.18587z"/><path d="m36.423338 148.10459c4.716547 0 7.250006-2.56041 7.250006-6.49536v-3.15335c0-.26952-.08085-.37732-.350372-.37732h-6.657069c-.242565 0-.32342.1078-.32342.35037v.48513c0 .24256.08085.35037.32342.35037h5.767663v2.3448c0 3.26115-2.102232 5.33644-6.010228 5.33644-3.934948 0-6.010228-2.07529-6.010228-5.5251v-6.60317c0-3.36896 1.994425-5.44424 6.010228-5.44424 3.476769 0 5.093871 1.26673 5.87547 3.93495.107807.26951.215613.29647.458179.21561l.512082-.16171c.242565-.10781.32342-.18866.215613-.45818-.889406-3.07249-2.910783-4.68959-7.061344-4.68959-4.77045 0-7.276958 2.53346-7.276958 6.63011v6.57622c0 4.12361 2.533459 6.68402 7.276958 6.68402z"/><path d="m54.847349 148.10459c4.716547 0 7.250007-2.53346 7.250007-6.65707v-6.57621c0-4.12361-2.53346-6.65707-7.250007-6.65707-4.743498 0-7.276958 2.53346-7.276958 6.65707v6.57621c0 4.12361 2.53346 6.65707 7.276958 6.65707zm0-1.15892c-3.934947 0-6.010228-2.07529-6.010228-5.5251v-6.52231c0-3.44982 2.075281-5.5251 6.010228-5.5251 3.907996 0 6.010229 2.07528 6.010229 5.5251v6.52231c0 3.44981-2.102233 5.5251-6.010229 5.5251z"/><path d="m67.12132 147.72726h.592937c.242566 0 .323421-.0808.323421-.35037v-8.05855h4.44703c2.263942 0 3.288107.78159 4.177513 2.56041l2.776024 5.55205c.134759.24256.242566.29646.673793.29646h.539034c.269517 0 .32342-.16171.188661-.35037l-3.045541-5.98327c-.565986-1.10502-1.185875-1.77882-2.210039-2.21004 2.910783-.24257 4.77045-2.10224 4.77045-5.20168 0-3.42287-2.075281-5.39034-5.498146-5.39034h-7.735137c-.242565 0-.32342.0809-.32342.35037v18.43496c0 .26952.08085.35037.32342.35037zm7.62733-9.56785h-6.710972v-8.40893h6.710972c2.749073 0 4.28532 1.53625 4.28532 4.23142s-1.59015 4.17751-4.28532 4.17751z"/><path d="m83.262016 147.72726h.458179c.404275 0 .512082-.0539.619889-.29646l2.371749-5.95633h8.947963l2.371749 5.95633c.08085.24256.215614.29646.619889.29646h.485131c.296469 0 .350372-.13475.242565-.32342l-7.46562-18.62362c-.08085-.24256-.188662-.32342-.458179-.32342h-.512082c-.242565 0-.377324.0809-.458179.32342l-7.46562 18.62362c-.08085.18867-.0539.32342.242566.32342zm12.020456-7.30391h-8.193315l3.82714-9.56785c.161711-.51208.188662-1.02416.215614-1.15892h.08085c.02695.13476.08085.64684.242565 1.18587z"/><path d="m108.91751 147.72726h.51208c.26952 0 .35037-.0808.35037-.35037v-12.34387c0-1.48235-.0539-2.93774-.16171-4.52789h.0539c.64684 1.37454 1.21282 2.53346 1.94052 3.74629l4.8513 8.62454c.13476.24256.21562.29647.45818.29647h.37733c.21561 0 .29646-.0809.43122-.29647l4.79741-8.51674c.70074-1.23978 1.34758-2.4526 1.99442-3.82714h.0809c-.13476 1.5632-.18867 3.0725-.18867 4.50094l-.0269 12.34387c0 .26952.0809.35037.35037.35037h.51209c.26951 0 .35037-.0808.35037-.35037v-18.43496c0-.26951-.0809-.35037-.35037-.35037h-.48513c-.26952 0-.37733.0809-.51209.32342l-7.1422 12.7212-7.22305-12.74815c-.13476-.21561-.21561-.29647-.51208-.29647h-.45818c-.24257 0-.32342.0809-.32342.35037v18.43496c0 .26952.0809.35037.32342.35037z"/><path d="m131.18424 147.72726h11.40057c.24256 0 .32342-.0808.32342-.35037v-.48513c0-.24256-.0809-.32342-.32342-.32342h-10.48421v-7.95075h8.92101c.26952 0 .35037-.0808.35037-.35037v-.48513c0-.24257-.0808-.35037-.35037-.35037h-8.92101v-7.68124h10.10688c.24257 0 .35038-.0808.35038-.32342v-.48513c0-.26951-.10781-.35037-.35038-.35037h-11.02324c-.24257 0-.32342.0809-.32342.35037v18.43496c0 .26952.0808.35037.32342.35037z"/><path d="m151.92526 147.72726h.56598c.26952 0 .35038-.0808.35038-.35037v-17.62641h6.03718c.24256 0 .32342-.0808.32342-.32342v-.48513c0-.26951-.0809-.35037-.32342-.35037h-13.34109c-.24257 0-.32342.0809-.32342.35037v.48513c0 .24257.0808.32342.32342.32342h6.06413v17.62641c0 .26952.0808.35037.32342.35037z"/><path d="m158.74782 147.72726h.45818c.40427 0 .51208-.0539.61989-.29646l2.37174-5.95633h8.94797l2.37175 5.95633c.0808.24256.21561.29646.61989.29646h.48513c.29647 0 .35037-.13475.24256-.32342l-7.46562-18.62362c-.0809-.24256-.18866-.32342-.45818-.32342h-.51208c-.24256 0-.37732.0809-.45818.32342l-7.46562 18.62362c-.0808.18867-.0539.32342.24257.32342zm12.02045-7.30391h-8.19331l3.82714-9.56785c.16171-.51208.18866-1.02416.21561-1.15892h.0809c.0269.13476.0808.64684.24256 1.18587z"/><path d="m178.6129 147.72726h10.72678c.24257 0 .32342-.0808.32342-.35037v-.48513c0-.24256-.0808-.32342-.32342-.32342h-9.81042v-17.62641c0-.26951-.0808-.35037-.32342-.35037h-.59294c-.24256 0-.32342.0809-.32342.35037v18.43496c0 .26952.0809.35037.32342.35037z"/></g></svg>